# xmcd
#
# Track frame offsets: 
#        150
#        16892
#        24377
#        36821
#        52539
#        61445
#        82896
#        105664
#        118840
#        135536
#        140456
#
# Disc length: 2040 seconds
#
# Revision: 0
# Processed by: cddbd v1.5.2PL0 Copyright (c) Steve Scherf et al.
# Submitted via: ExactAudioCopy v1.0b4
#
DISCID=8307f60b
DTITLE=Lightnin' Hopkins  - Get Off My Toe (LP)
DYEAR=1900
DGENRE=Blues
TTITLE0=Short Haired Woman
TTITLE1=Long Time
TTITLE2=The Foot Race Is On
TTITLE3=Prison Blues Come Down On Me
TTITLE4=Bunion Stew
TTITLE5=Mama And Papa Hopkins
TTITLE6=Get Off My Toe
TTITLE7=Trouble In Mind
TTITLE8=Gonna Pull A Party
TTITLE9=Till The Gin Runs Out
TTITLE10=When The Saints Go Marchin' In
EXTD=
EXTT0=
EXTT1=
EXTT2=
EXTT3=
EXTT4=
EXTT5=
EXTT6=
EXTT7=
EXTT8=
EXTT9=
EXTT10=
PLAYORDER=
